<svg xmlns="http://www.w3.org/2000/svg" width="400" height="409" viewBox="0 0 400 409">
  <g id="_12" data-name="12" transform="translate(-1020.051 -1743)">
    <rect id="Rectángulo_401629" data-name="Rectángulo 401629" width="400" height="409" rx="13" transform="translate(1020.051 1743)" fill="#fdeab6"/>
    <g id="Grupo_1099906" data-name="Grupo 1099906" transform="translate(0 3)">
      <path id="Trazado_879078" data-name="Trazado 879078" d="M2.984-8.453l.07.945a2.971,2.971,0,0,1,2.43-1.1A2.255,2.255,0,0,1,7.727-7.32a2.9,2.9,0,0,1,2.539-1.289,2.521,2.521,0,0,1,2.047.8,3.681,3.681,0,0,1,.672,2.41V0H10.719V-5.391a1.61,1.61,0,0,0-.281-1.051,1.246,1.246,0,0,0-.992-.332A1.409,1.409,0,0,0,8.039-5.8L8.047,0H5.789V-5.383A1.59,1.59,0,0,0,5.5-6.445a1.259,1.259,0,0,0-.984-.328,1.463,1.463,0,0,0-1.391.8V0H.867V-8.453ZM18.609.156A4.15,4.15,0,0,1,15.582-.984a4.054,4.054,0,0,1-1.168-3.039v-.219a5.106,5.106,0,0,1,.492-2.277A3.612,3.612,0,0,1,16.3-8.066a3.914,3.914,0,0,1,2.059-.543,3.508,3.508,0,0,1,2.73,1.094,4.444,4.444,0,0,1,1,3.1v.922H16.7a2.1,2.1,0,0,0,.66,1.328,2,2,0,0,0,1.395.5A2.437,2.437,0,0,0,20.8-2.609l1.109,1.242A3.389,3.389,0,0,1,20.531-.246,4.511,4.511,0,0,1,18.609.156Zm-.258-6.945a1.411,1.411,0,0,0-1.09.455,2.357,2.357,0,0,0-.535,1.3h3.141v-.181a1.681,1.681,0,0,0-.406-1.165A1.456,1.456,0,0,0,18.352-6.789Zm4.664,2.5A5.094,5.094,0,0,1,23.9-7.437a2.877,2.877,0,0,1,2.426-1.172,2.589,2.589,0,0,1,2.039.922V-12h2.266V0H28.594l-.109-.9A2.657,2.657,0,0,1,26.313.156,2.869,2.869,0,0,1,23.918-1.02,5.258,5.258,0,0,1,23.016-4.289Zm2.258.168A3.337,3.337,0,0,0,25.688-2.3a1.349,1.349,0,0,0,1.2.634,1.511,1.511,0,0,0,1.477-.884V-5.889a1.489,1.489,0,0,0-1.461-.884Q25.273-6.773,25.273-4.121ZM34.766,0H32.5V-8.453h2.266Zm-2.4-10.641a1.112,1.112,0,0,1,.34-.836,1.277,1.277,0,0,1,.926-.328,1.28,1.28,0,0,1,.922.328,1.105,1.105,0,0,1,.344.836,1.108,1.108,0,0,1-.348.844,1.283,1.283,0,0,1-.918.328,1.283,1.283,0,0,1-.918-.328A1.108,1.108,0,0,1,32.367-10.641ZM41.523,0A2.507,2.507,0,0,1,41.3-.758a2.732,2.732,0,0,1-2.133.914,3,3,0,0,1-2.059-.719,2.312,2.312,0,0,1-.816-1.812,2.389,2.389,0,0,1,1-2.062,4.915,4.915,0,0,1,2.879-.727H41.2v-.484a1.393,1.393,0,0,0-.3-.937,1.183,1.183,0,0,0-.949-.352,1.345,1.345,0,0,0-.895.273.929.929,0,0,0-.324.75H36.477a2.268,2.268,0,0,1,.453-1.359,3,3,0,0,1,1.281-.98,4.669,4.669,0,0,1,1.859-.355,3.689,3.689,0,0,1,2.48.785,2.747,2.747,0,0,1,.918,2.207v3.664A4.041,4.041,0,0,0,43.8-.133V0ZM39.656-1.57a1.945,1.945,0,0,0,.922-.223,1.462,1.462,0,0,0,.625-.6V-3.844h-.844q-1.7,0-1.8,1.172l-.008.133a.9.9,0,0,0,.3.7A1.153,1.153,0,0,0,39.656-1.57Zm7.625-6.883.07.977a2.951,2.951,0,0,1,2.43-1.133,2.453,2.453,0,0,1,2,.789,3.682,3.682,0,0,1,.672,2.359V0H50.2V-5.406a1.465,1.465,0,0,0-.312-1.043,1.4,1.4,0,0,0-1.039-.324,1.553,1.553,0,0,0-1.43.813V0H45.156V-8.453ZM59.063,0a2.507,2.507,0,0,1-.227-.758A2.732,2.732,0,0,1,56.7.156a3,3,0,0,1-2.059-.719,2.312,2.312,0,0,1-.816-1.812,2.389,2.389,0,0,1,1-2.062A4.915,4.915,0,0,1,57.7-5.164h1.039v-.484a1.393,1.393,0,0,0-.3-.937,1.183,1.183,0,0,0-.949-.352,1.345,1.345,0,0,0-.895.273.929.929,0,0,0-.324.75H54.016a2.268,2.268,0,0,1,.453-1.359,3,3,0,0,1,1.281-.98,4.669,4.669,0,0,1,1.859-.355,3.689,3.689,0,0,1,2.48.785,2.747,2.747,0,0,1,.918,2.207v3.664a4.041,4.041,0,0,0,.336,1.82V0ZM57.2-1.57a1.945,1.945,0,0,0,.922-.223,1.462,1.462,0,0,0,.625-.6V-3.844H57.9q-1.7,0-1.8,1.172l-.008.133a.9.9,0,0,0,.3.7A1.153,1.153,0,0,0,57.2-1.57Z" transform="translate(1130.051 2025)" fill="#12263f"/>
      <path id="Trazado_874179" data-name="Trazado 874179" d="M-7348.928-9079.17c-4.934,1.492-4.6,8.764-4.6,8.764l334.492-3.689s-102.916-18.684-182.457-55.338c-36.32-16.74-52.107-67.965-78.639-67.965-30.463,0-35.857,31.1-41.287,50.967C-7330.367-9113.7-7324.877-9116.223-7348.928-9079.17Z" transform="translate(8406.58 11061.054)" fill="#9facb6" stroke="#12263f" stroke-width="1"/>
      <path id="Intersección_6" data-name="Intersección 6" d="M8610.615,11736.461l-1.064.012v-101.314q.53.661,1.064,1.332v0c12.2,15.321,25.549,33.406,44.476,42.129,79.54,36.654,182.457,55.339,182.457,55.339l-226.933,2.5v0Z" transform="translate(-7449.999 -9747)" fill="#c6e9f3" stroke="#707070" stroke-width="1"/>
      <line id="Línea_576" data-name="Línea 576" y2="149.455" transform="translate(1160.616 1861)" fill="none" stroke="red" stroke-width="3"/>
      <path id="Trazado_879077" data-name="Trazado 879077" d="M1.664-8.391l.984-8.672h9.563v2.824H5.426L5-10.57a5.369,5.369,0,0,1,2.566-.645A4.918,4.918,0,0,1,11.391-9.7a6.038,6.038,0,0,1,1.383,4.23,6.186,6.186,0,0,1-.7,2.959,4.921,4.921,0,0,1-2,2.027,6.237,6.237,0,0,1-3.07.721A6.624,6.624,0,0,1,4.137-.393,5.093,5.093,0,0,1,2.045-2.156a4.807,4.807,0,0,1-.814-2.59H4.582a2.5,2.5,0,0,0,.744,1.658A2.359,2.359,0,0,0,7-2.5a2.082,2.082,0,0,0,1.77-.826A3.827,3.827,0,0,0,9.387-5.66a3.165,3.165,0,0,0-.715-2.227A2.623,2.623,0,0,0,6.645-8.66a2.932,2.932,0,0,0-1.957.633l-.328.3Zm24.75,1.336a8.644,8.644,0,0,1-1.465,5.414A5.113,5.113,0,0,1,20.66.234a5.149,5.149,0,0,1-4.266-1.84,8.391,8.391,0,0,1-1.512-5.273V-10.02a8.53,8.53,0,0,1,1.482-5.426A5.151,5.151,0,0,1,20.637-17.3,5.156,5.156,0,0,1,24.9-15.463,8.365,8.365,0,0,1,26.414-10.2Zm-3.387-3.453a6.248,6.248,0,0,0-.58-3.091,1.96,1.96,0,0,0-1.811-.968,1.926,1.926,0,0,0-1.764.921,5.847,5.847,0,0,0-.6,2.88v4.152a6.559,6.559,0,0,0,.568,3.1A1.934,1.934,0,0,0,20.66-2.5a1.9,1.9,0,0,0,1.793-.974,6.4,6.4,0,0,0,.574-2.979Zm11.6-3.274a3.373,3.373,0,0,1,1.02-2.549,3.7,3.7,0,0,1,2.672-.979,3.756,3.756,0,0,1,2.7.967,3.438,3.438,0,0,1,1.02,2.619v.844a3.331,3.331,0,0,1-1.02,2.543,3.737,3.737,0,0,1-2.672.961,3.76,3.76,0,0,1-2.689-.967,3.413,3.413,0,0,1-1.025-2.607Zm2.25.9a1.579,1.579,0,0,0,.4,1.131,1.392,1.392,0,0,0,1.061.428,1.328,1.328,0,0,0,1.043-.434,1.679,1.679,0,0,0,.387-1.16v-.867a1.644,1.644,0,0,0-.387-1.137,1.356,1.356,0,0,0-1.066-.434,1.359,1.359,0,0,0-1.043.428,1.678,1.678,0,0,0-.4,1.189Zm5.906,8.7a3.33,3.33,0,0,1,1.031-2.549A3.749,3.749,0,0,1,46.488-7.7a3.788,3.788,0,0,1,2.689.955A3.419,3.419,0,0,1,50.2-4.113v.844A3.355,3.355,0,0,1,49.2-.732a3.714,3.714,0,0,1-2.684.967A3.759,3.759,0,0,1,43.8-.738a3.4,3.4,0,0,1-1.02-2.578Zm2.25.914a1.567,1.567,0,0,0,.422,1.1,1.376,1.376,0,0,0,1.055.457q1.43,0,1.43-1.582v-.891a1.593,1.593,0,0,0-.4-1.131,1.373,1.373,0,0,0-1.055-.428,1.373,1.373,0,0,0-1.055.428,1.643,1.643,0,0,0-.4,1.166ZM39.012-1.277l-1.652-.891L45.691-15.5l1.652.891Z" transform="translate(1090.051 1961)" fill="#12263f"/>
      <path id="Trazado_879076" data-name="Trazado 879076" d="M1.664-8.391l.984-8.672h9.563v2.824H5.426L5-10.57a5.369,5.369,0,0,1,2.566-.645A4.918,4.918,0,0,1,11.391-9.7a6.038,6.038,0,0,1,1.383,4.23,6.186,6.186,0,0,1-.7,2.959,4.921,4.921,0,0,1-2,2.027,6.237,6.237,0,0,1-3.07.721A6.624,6.624,0,0,1,4.137-.393,5.093,5.093,0,0,1,2.045-2.156a4.807,4.807,0,0,1-.814-2.59H4.582a2.5,2.5,0,0,0,.744,1.658A2.359,2.359,0,0,0,7-2.5a2.082,2.082,0,0,0,1.77-.826A3.827,3.827,0,0,0,9.387-5.66a3.165,3.165,0,0,0-.715-2.227A2.623,2.623,0,0,0,6.645-8.66a2.932,2.932,0,0,0-1.957.633l-.328.3Zm24.75,1.336a8.644,8.644,0,0,1-1.465,5.414A5.113,5.113,0,0,1,20.66.234a5.149,5.149,0,0,1-4.266-1.84,8.391,8.391,0,0,1-1.512-5.273V-10.02a8.53,8.53,0,0,1,1.482-5.426A5.151,5.151,0,0,1,20.637-17.3,5.156,5.156,0,0,1,24.9-15.463,8.365,8.365,0,0,1,26.414-10.2Zm-3.387-3.453a6.248,6.248,0,0,0-.58-3.091,1.96,1.96,0,0,0-1.811-.968,1.926,1.926,0,0,0-1.764.921,5.847,5.847,0,0,0-.6,2.88v4.152a6.559,6.559,0,0,0,.568,3.1A1.934,1.934,0,0,0,20.66-2.5a1.9,1.9,0,0,0,1.793-.974,6.4,6.4,0,0,0,.574-2.979Zm11.6-3.274a3.373,3.373,0,0,1,1.02-2.549,3.7,3.7,0,0,1,2.672-.979,3.756,3.756,0,0,1,2.7.967,3.438,3.438,0,0,1,1.02,2.619v.844a3.331,3.331,0,0,1-1.02,2.543,3.737,3.737,0,0,1-2.672.961,3.76,3.76,0,0,1-2.689-.967,3.413,3.413,0,0,1-1.025-2.607Zm2.25.9a1.579,1.579,0,0,0,.4,1.131,1.392,1.392,0,0,0,1.061.428,1.328,1.328,0,0,0,1.043-.434,1.679,1.679,0,0,0,.387-1.16v-.867a1.644,1.644,0,0,0-.387-1.137,1.356,1.356,0,0,0-1.066-.434,1.359,1.359,0,0,0-1.043.428,1.678,1.678,0,0,0-.4,1.189Zm5.906,8.7a3.33,3.33,0,0,1,1.031-2.549A3.749,3.749,0,0,1,46.488-7.7a3.788,3.788,0,0,1,2.689.955A3.419,3.419,0,0,1,50.2-4.113v.844A3.355,3.355,0,0,1,49.2-.732a3.714,3.714,0,0,1-2.684.967A3.759,3.759,0,0,1,43.8-.738a3.4,3.4,0,0,1-1.02-2.578Zm2.25.914a1.567,1.567,0,0,0,.422,1.1,1.376,1.376,0,0,0,1.055.457q1.43,0,1.43-1.582v-.891a1.593,1.593,0,0,0-.4-1.131,1.373,1.373,0,0,0-1.055-.428,1.373,1.373,0,0,0-1.055.428,1.643,1.643,0,0,0-.4,1.166ZM39.012-1.277l-1.652-.891L45.691-15.5l1.652.891Z" transform="translate(1170.051 1961)" fill="#12263f"/>
    </g>
  </g>
</svg>
